{"title":"3G- A Killer Connection 2013 Hindi Movies 720P HD BRRip New Sour","uid":8274135,"size":890862640,"categoryP":"video","categoryS":"hd___movies","magnet":"?xt=urn:btih:95ecfa9aa7607f562248f928979ed011e2581de2&amp;dn=3G-+A+Killer+Connection+2013+Hindi+Movies+720P+HD+BRRip+New+Sour&amp;tr=udp%3A%2F%2Ftracker.openbittorrent.com%3A80&amp;tr=udp%3A%2F%2Fopen.demonii.com%3A1337&amp;tr=udp%3A%2F%2Ftracker.coppersurfer.tk%3A6969&amp;tr=udp%3A%2F%2Fexodus.desync.com%3A6969","seeders":1,"leechers":0,"uploader":"basicssom","files":2,"time":1363672229,"description":"3G- A Killer Connection 2013 Hindi Movies 720P HD BRRip New Source Sample Included ~ rDX\n\nScreen Shots :\n &lt;a href=&quot;\nhttp://myimghosting.serveftp.com/13/3GAKillerConnection720.html&quot; rel=&quot;nofollow&quot; target=&quot;_NEW&quot;&gt;\nhttp://myimghosting.serveftp.com/13/3GAKillerConnection720.html&lt;/a&gt;\n &lt;a href=&quot;\nhttp://myimghost.cwahi.net/3GAKillerConnection720.html&quot; rel=&quot;nofollow&quot; target=&quot;_NEW&quot;&gt;\nhttp://myimghost.cwahi.net/3GAKillerConnection720.html&lt;/a&gt;\n\n\nFormat                                   : Matroska\nFormat version                           : Version 1\nFile size                                : 843 MiB\nDuration                                 : 2h 0mn\nOverall bit rate                         : 979 Kbps\nEncoded date                             : UTC 2013-03-19 04:36:10\n\nVideo\nID                                       : 1\nFormat                                   : AVC\nFormat/Info                              : Advanced Video Codec\nFormat profile                           : &lt;a class=&quot;__cf_email__&quot; href=&quot;/cdn-cgi/l/email-protection&quot; data-cfemail=&quot;3078595758707c031e02&quot;&gt;[email&amp;#160;protected]&lt;/a&gt;&lt;script cf-hash='f9e31' type=&quot;text/javascript&quot;&gt;\n/* &lt;![CDATA[ */!function(){try{var t=&quot;currentScript&quot;in document?document.currentScript:function(){for(var t=document.getElementsByTagName(&quot;script&quot;),e=t.length;e--;)if(t[e].getAttribute(&quot;cf-hash&quot;))return t[e]}();if(t&amp;&amp;t.previousSibling){var e,r,n,i,c=t.previousSibling,a=c.getAttribute(&quot;data-cfemail&quot;);if(a){for(e=&quot;&quot;,r=parseInt(a.substr(0,2),16),n=2;a.length-n;n+=2)i=parseInt(a.substr(n,2),16)^r,e+=String.fromCharCode(i);e=document.createTextNode(e),c.parentNode.replaceChild(e,c)}}}catch(u){}}();/* ]]&gt; */&lt;/script&gt;\nFormat settings, CABAC                   : Yes\nFormat settings, ReFrames                : 4 frames\nCodec ID                                 : V_MPEG4/ISO/AVC\nDuration                                 : 2h 0mn\nBit rate                                 : 835 Kbps\nWidth                                    : 1 280 pixels\nHeight                                   : 544 pixels\nDisplay aspect ratio                     : 2.35:1\nOriginal display aspect ratio            : 2.35:1\nFrame rate mode                          : Constant\nFrame rate                               : 24.000 fps\nColor space                              : YUV\nChroma subsampling                       : 4:2:0\nBit depth                                : 8 bits\nScan type                                : Progressive\nBits/(Pixel*Frame)                       : 0.050\nStream size                              : 716 MiB (85%)\nLanguage                                 : English\nDefault                                  : Yes\nForced                                   : No\n\nAudio\nID                                       : 2\nFormat                                   : AC-3\nFormat/Info                              : Audio Coding 3\nMode extension                           : CM (complete main)\nFormat settings, Endianness              : Big\nCodec ID                                 : A_AC3\nDuration                                 : 2h 0mn\nBit rate mode                            : Constant\nBit rate                                 : 128 Kbps\nChannel(s)                               : 2 channels\nChannel positions                        : Front: L R\nSampling rate                            : 44.1 KHz\nBit depth                                : 16 bits\nCompression mode                         : Lossy\nDelay relative to video                  : 20ms\nStream size                              : 110 MiB (13%)\nTitle                                    : CharmeLeon\nLanguage                                 : Hindi\nDefault                                  : Yes\nForced                                   : No","torrent":{"xt":"urn:btih:95ecfa9aa7607f562248f928979ed011e2581de2","amp;dn":"3G-+A+Killer+Connection+2013+Hindi+Movies+720P+HD+BRRip+New+Sour","amp;tr":["udp%3A%2F%2Ftracker.openbittorrent.com%3A80","udp%3A%2F%2Fopen.demonii.com%3A1337","udp%3A%2F%2Ftracker.coppersurfer.tk%3A6969","udp%3A%2F%2Fexodus.desync.com%3A6969"],"infoHash":"95ecfa9aa7607f562248f928979ed011e2581de2","infoHashBuffer":{"type":"Buffer","data":[149,236,250,154,167,96,127,86,34,72,249,40,151,158,208,17,226,88,29,226]},"announce":[],"urlList":[]}}